<svg preserveAspectRatio="xMidYMid meet" overflow="visible" style="display: block;" width="18" height="18" viewBox="0 0 18 18" fill="none" xmlns="http://www.w3.org/2000/svg">
<g id="adjustments-horizontal 1" clip-path="url(#clip0_0_4)">
<g id="Vector">
</g>
<path id="Vector_2" d="M9.43934 5.56066C9.15804 5.27936 9 4.89782 9 4.5C9 4.10218 9.15804 3.72064 9.43934 3.43934C9.72064 3.15804 10.1022 3 10.5 3C10.8978 3 11.2794 3.15804 11.5607 3.43934C11.842 3.72064 12 4.10218 12 4.5C12 4.89782 11.842 5.27936 11.5607 5.56066C11.2794 5.84196 10.8978 6 10.5 6C10.1022 6 9.72064 5.84196 9.43934 5.56066Z" stroke="#6B6B7D" stroke-width="1.5" stroke-linecap="round" stroke-linejoin="round"/>
<path id="Vector_3" d="M3 4.5H9" stroke="#6B6B7D" stroke-width="1.5" stroke-linecap="round" stroke-linejoin="round"/>
<path id="Vector_4" d="M12 4.5H15" stroke="#6B6B7D" stroke-width="1.5" stroke-linecap="round" stroke-linejoin="round"/>
<path id="Vector_5" d="M4.93934 10.0607C4.65804 9.77936 4.5 9.39782 4.5 9C4.5 8.60218 4.65804 8.22064 4.93934 7.93934C5.22064 7.65804 5.60218 7.5 6 7.5C6.39782 7.5 6.77936 7.65804 7.06066 7.93934C7.34196 8.22064 7.5 8.60218 7.5 9C7.5 9.39782 7.34196 9.77936 7.06066 10.0607C6.77936 10.342 6.39782 10.5 6 10.5C5.60218 10.5 5.22064 10.342 4.93934 10.0607Z" stroke="#6B6B7D" stroke-width="1.5" stroke-linecap="round" stroke-linejoin="round"/>
<path id="Vector_6" d="M3 9H4.5" stroke="#6B6B7D" stroke-width="1.5" stroke-linecap="round" stroke-linejoin="round"/>
<path id="Vector_7" d="M7.5 9H15" stroke="#6B6B7D" stroke-width="1.5" stroke-linecap="round" stroke-linejoin="round"/>
<path id="Vector_8" d="M11.25 13.5C11.25 13.8978 11.408 14.2794 11.6893 14.5607C11.9706 14.842 12.3522 15 12.75 15C13.1478 15 13.5294 14.842 13.8107 14.5607C14.092 14.2794 14.25 13.8978 14.25 13.5C14.25 13.1022 14.092 12.7206 13.8107 12.4393C13.5294 12.158 13.1478 12 12.75 12C12.3522 12 11.9706 12.158 11.6893 12.4393C11.408 12.7206 11.25 13.1022 11.25 13.5Z" stroke="#6B6B7D" stroke-width="1.5" stroke-linecap="round" stroke-linejoin="round"/>
<path id="Vector_9" d="M3 13.5H11.25" stroke="#6B6B7D" stroke-width="1.5" stroke-linecap="round" stroke-linejoin="round"/>
<path id="Vector_10" d="M14.25 13.5H15" stroke="#6B6B7D" stroke-width="1.5" stroke-linecap="round" stroke-linejoin="round"/>
</g>
<defs>
<clipPath id="clip0_0_4">
<rect width="18" height="18" fill="white"/>
</clipPath>
</defs>
</svg>
