<svg width="30" height="30" viewBox="0 0 30 30" fill="none" xmlns="http://www.w3.org/2000/svg">
<rect width="30" height="30" fill="#F5F5F5"/>
<g id="Dashboard">
<rect width="1920" height="8255" transform="translate(-774.2 -1080.5)" fill="#F8F8FB"/>
<g id="Frame 34083">
<rect x="-497.7" y="-223" width="800" height="449" rx="15.5" fill="white"/>
<rect x="-497.7" y="-223" width="800" height="449" rx="15.5" stroke="#E4E4EC"/>
<g id="Frame 34095">
<g id="Frame 34351">
<g id="Frame 33973">
<rect x="-30.5" y="-30.5" width="311.8" height="91" rx="15.5" fill="white"/>
<rect x="-30.5" y="-30.5" width="311.8" height="91" rx="15.5" stroke="#EEEEF5"/>
<g id="Frame 33970">
<g id="Frame 34352">
<rect x="-15" y="-15" width="60" height="60" rx="8" fill="#EEEEF5"/>
<g id="user-check 1" clip-path="url(#clip0_0_1)">
<path id="Vector" d="M11.4645 12.2855C10.5268 11.3479 10 10.0761 10 8.75C10 7.42392 10.5268 6.15215 11.4645 5.21447C12.4021 4.27678 13.6739 3.75 15 3.75C16.3261 3.75 17.5979 4.27678 18.5355 5.21447C19.4732 6.15215 20 7.42392 20 8.75C20 10.0761 19.4732 11.3479 18.5355 12.2855C17.5979 13.2232 16.3261 13.75 15 13.75C13.6739 13.75 12.4021 13.2232 11.4645 12.2855Z" stroke="#27865B" stroke-width="2" stroke-linecap="round" stroke-linejoin="round"/>
<path id="Vector_2" d="M7.5 26.25V23.75C7.5 22.4239 8.02678 21.1521 8.96447 20.2145C9.90215 19.2768 11.1739 18.75 12.5 18.75H17.5" stroke="#27865B" stroke-width="2" stroke-linecap="round" stroke-linejoin="round"/>
<path id="Vector_3" d="M18.75 23.75L21.25 26.25L26.25 21.25" stroke="#27865B" stroke-width="2" stroke-linecap="round" stroke-linejoin="round"/>
</g>
</g>
</g>
</g>
</g>
</g>
</g>
</g>
<defs>
<clipPath id="clip0_0_1">
<rect width="30" height="30" fill="white"/>
</clipPath>
</defs>
</svg>
