<svg preserveAspectRatio="none" overflow="visible" style="display: block;" width="200" height="200" viewBox="0 0 200 200" fill="none" xmlns="http://www.w3.org/2000/svg">
<g id="Frame" clip-path="url(#clip0_0_4)">
<g id="Vector">
</g>
<path id="Vector_2" d="M50 150H91.6667" stroke="#E4E4EC" stroke-width="5" stroke-linecap="round" stroke-linejoin="round"/>
<path id="Vector_3" d="M116.667 150H150" stroke="#E4E4EC" stroke-width="5" stroke-linecap="round" stroke-linejoin="round"/>
<path id="Vector_4" d="M125 58.3333H125.083" stroke="#E4E4EC" stroke-width="5" stroke-linecap="round" stroke-linejoin="round"/>
<path id="Vector_5" d="M25 50C25 43.3696 27.6339 37.0107 32.3223 32.3223C37.0107 27.6339 43.3696 25 50 25H150C156.63 25 162.989 27.6339 167.678 32.3223C172.366 37.0107 175 43.3696 175 50V150C175 156.63 172.366 162.989 167.678 167.678C162.989 172.366 156.63 175 150 175H50C43.3696 175 37.0107 172.366 32.3223 167.678C27.6339 162.989 25 156.63 25 150V50Z" stroke="#E4E4EC" stroke-width="5" stroke-linecap="round" stroke-linejoin="round"/>
<path id="Vector_6" d="M25 125L66.6667 83.3333C74.4 75.8917 83.9333 75.8917 91.6667 83.3333L133.333 125" stroke="#E4E4EC" stroke-width="5" stroke-linecap="round" stroke-linejoin="round"/>
<path id="Vector_7" d="M116.667 108.333L125 100C132.733 92.5583 142.267 92.5583 150 100L175 125" stroke="#E4E4EC" stroke-width="5" stroke-linecap="round" stroke-linejoin="round"/>
<path id="Vector_8" d="M25 125H175" stroke="#E4E4EC" stroke-width="5" stroke-linecap="round" stroke-linejoin="round"/>
</g>
<defs>
<clipPath id="clip0_0_4">
<rect width="200" height="200" fill="white"/>
</clipPath>
</defs>
</svg>
