<svg preserveAspectRatio="none" overflow="visible" style="display: block;" width="20" height="20" viewBox="0 0 20 20" fill="none" xmlns="http://www.w3.org/2000/svg">
<g id="file-alert 1" clip-path="url(#clip0_0_4)">
<g id="Vector">
</g>
<path id="Vector_2" d="M11.6667 2.5V5.83333C11.6667 6.05435 11.7545 6.26631 11.9107 6.42259C12.067 6.57887 12.279 6.66667 12.5 6.66667H15.8333" stroke="#3E6FA8" stroke-width="1.2" stroke-linecap="round" stroke-linejoin="round"/>
<path id="Vector_3" d="M14.1667 17.5H5.83333C5.39131 17.5 4.96738 17.3244 4.65482 17.0118C4.34226 16.6993 4.16667 16.2754 4.16667 15.8333V4.16667C4.16667 3.72464 4.34226 3.30072 4.65482 2.98816C4.96738 2.67559 5.39131 2.5 5.83333 2.5H11.6667L15.8333 6.66667V15.8333C15.8333 16.2754 15.6577 16.6993 15.3452 17.0118C15.0326 17.3244 14.6087 17.5 14.1667 17.5Z" stroke="#3E6FA8" stroke-width="1.2" stroke-linecap="round" stroke-linejoin="round"/>
<path id="Vector_4" d="M6 15C7.48133 13.788 8.22222 12.8182 8.22222 12.0909C8.22222 11 7.77778 11 7.33333 11C6.88889 11 6.43022 11.3945 6.44444 12.0909C6.45956 12.8356 7.18133 13.8644 7.55556 14.2727C8.22222 15 8.66667 15.1818 9.11111 14.6364L10 13.5455C10.148 14.5153 10.5924 15 11.3333 15C11.5689 15 12.5062 14.2727 12.6667 14.2727C12.8964 14.2727 13.3409 14.5153 14 15" stroke="#3E6FA8" stroke-width="0.8" stroke-linecap="round" stroke-linejoin="round"/>
<line id="Line 11" x1="6.5" y1="5.5" x2="9.5" y2="5.5" stroke="#3E6FA8" stroke-linecap="round"/>
<line id="Line 12" x1="6.5" y1="8.5" x2="12.5" y2="8.5" stroke="#3E6FA8" stroke-linecap="round"/>
</g>
<defs>
<clipPath id="clip0_0_4">
<rect width="20" height="20" fill="white"/>
</clipPath>
</defs>
</svg>
